<?xml version="1.0" encoding="UTF-8" standalone="no"?>
<svg
   xmlns:dc="http://purl.org/dc/elements/1.1/"
   xmlns:cc="http://creativecommons.org/ns#"
   xmlns:rdf="http://www.w3.org/1999/02/22-rdf-syntax-ns#"
   xmlns:svg="http://www.w3.org/2000/svg"
   xmlns="http://www.w3.org/2000/svg"
   xmlns:sodipodi="http://sodipodi.sourceforge.net/DTD/sodipodi-0.dtd"
   xmlns:inkscape="http://www.inkscape.org/namespaces/inkscape"
   version="1.1"
   x="0px"
   y="0px"
   viewBox="0 0 100 100"
   enable-background="new 0 0 100 100"
   xml:space="preserve"
   id="svg3853"
   sodipodi:docname="logo.svg"
   inkscape:version="0.92.2 (5c3e80d, 2017-08-06)"
   width="100"
   height="100"
   inkscape:export-filename="/home/andrei/Dev/TurboAwesomeBar/app/images/icon-128.png"
   inkscape:export-xdpi="122.88"
   inkscape:export-ydpi="122.88"><metadata
     id="metadata3859"><rdf:RDF><cc:Work
         rdf:about=""><dc:format>image/svg+xml</dc:format><dc:type
           rdf:resource="http://purl.org/dc/dcmitype/StillImage" /><dc:title></dc:title></cc:Work></rdf:RDF></metadata><defs
     id="defs3857" /><sodipodi:namedview
     pagecolor="#ffffff"
     bordercolor="#666666"
     borderopacity="1"
     objecttolerance="10"
     gridtolerance="10"
     guidetolerance="10"
     inkscape:pageopacity="0"
     inkscape:pageshadow="2"
     inkscape:window-width="1920"
     inkscape:window-height="1053"
     id="namedview3855"
     showgrid="false"
     inkscape:zoom="6.808"
     inkscape:cx="-0.60223287"
     inkscape:cy="44.286134"
     inkscape:window-x="0"
     inkscape:window-y="27"
     inkscape:window-maximized="1"
     inkscape:current-layer="layer1" /><rect
     style="fill:#000000;fill-opacity:0"
     id="rect4666"
     width="90.04113"
     height="71.386604"
     x="0.29377204"
     y="-24.412457" /><g
     inkscape:groupmode="layer"
     id="layer1"
     inkscape:label="bg"
     transform="translate(0,-25)"><rect
       style="fill:#d3c8f0;fill-opacity:1;stroke:#bfb3db;stroke-width:1.70571446;stroke-opacity:1"
       id="rect4668"
       width="95"
       height="95"
       x="2.6439481"
       y="27.119858"
       ry="14.556453" /></g><g
     inkscape:groupmode="layer"
     id="layer2"
     inkscape:label="fg"
     transform="translate(0,-25)"><g
       id="g3847"
       style="fill:#493e66;fill-opacity:1"
       transform="translate(0,24)"><path
         d="M 83.5,21.6 C 83.5,20.8 83.2,20 82.8,19.3 82,18.1 80.5,17 78.5,16 72.6,13 62,11.1 50,11.1 c -9.2,0 -17.5,1.1 -23.6,3 -3,0.9 -5.5,2 -7.2,3.3 -0.9,0.6 -1.6,1.3 -2,2 -0.5,0.7 -0.7,1.5 -0.7,2.3 0,0.8 0.3,1.6 0.7,2.3 0.1,0.2 0.3,0.4 0.4,0.5 L 42,61.3 V 88.8 L 58.7,77.3 v -16 L 83.3,23.2 h -0.1 c 0.1,-0.5 0.3,-1 0.3,-1.6 z M 57.7,61.1 v 15.7 l -15,10.3 V 61 l -23,-34.7 c 0.5,0.3 1,0.6 1.6,0.9 5.9,3 16.5,4.9 28.5,4.9 9.2,0 17.5,-1.1 23.6,-3 2.8,-0.9 5.1,-1.9 6.8,-3 z M 82,23.4 c -0.7,1.1 -2.1,2.1 -4,3.1 -5.6,2.8 -16.1,4.8 -28.1,4.8 -9.1,0 -17.4,-1.1 -23.3,-2.9 -3,-0.9 -5.4,-2 -7,-3.1 C 19,24.9 18.5,24.4 18.2,24 l -0.4,-0.6 v 0 c -0.4,-0.6 -0.5,-1.1 -0.5,-1.7 0,-0.6 0.2,-1.2 0.6,-1.8 0.7,-1.1 2.1,-2.1 4,-3.1 5.5,-2.9 16,-4.9 28,-4.9 9.1,0 17.4,1.1 23.3,2.9 3,0.9 5.4,2 7,3.1 0.8,0.6 1.4,1.2 1.8,1.8 0.4,0.6 0.6,1.2 0.6,1.8 0,0.7 -0.2,1.3 -0.6,1.9 z"
         id="path3843"
         style="fill:#493e66;fill-opacity:1"
         inkscape:connector-curvature="0" /><ellipse
         cx="50.046886"
         cy="21.700001"
         rx="31.799999"
         ry="8.6000004"
         id="ellipse3845"
         style="fill:#493e66;fill-opacity:1" /></g></g></svg>